<svg width="621.8765380859375px" height="120.8px" xmlns="http://www.w3.org/2000/svg" viewBox="-60.93826904296873 14.600000000000001 621.8765380859375 120.8" style="background: rgba(0, 0, 0, 0);" preserveAspectRatio="xMidYMid"><defs><linearGradient id="editing-shiny-gradient" x1="0.04322727117869957" x2="0.9567727288213004" y1="0.2966316784620999" y2="0.7033683215379001" gradientUnits="objectBoundingBox"><stop offset="0.0" stop-color="#ffb200"></stop><stop offset="0.5" stop-color="#e10057"></stop><stop offset="1.0" stop-color="#5A1A80"></stop></linearGradient><linearGradient id="editing-shiny-gradient2" x1="0" x2="0" y1="0" y2="1"><stop offset="0.2" stop-color="#fff" stop-opacity="0.8"></stop><stop offset="0.8" stop-color="#fff" stop-opacity="0"></stop></linearGradient><filter id="editing-shiny2" x="-100%" y="-100%" width="300%" height="300%"><feMorphology operator="erode" radius="2"></feMorphology></filter><filter id="editing-shiny" x="-100%" y="-100%" width="300%" height="300%"><feFlood flood-color="#fff" result="flood"></feFlood><feConvolveMatrix in="SourceGraphic" result="conv" order="8,8" divisor="1" kernelMatrix="0 0 0 0 0 0 0 0 0 0 0 1 1 0 0 0 0 0 0 1 1 0 0 0 0 0 1 0 0 1 0 0 0 0 1 0 0 1 0 0 0 1 0 0 0 0 1 0 0 1 1 0 0 1 1 0 0 0 0 1 1 0 0 0 "></feConvolveMatrix><feOffset dx="0" dy="4" in="conv" result="offset"></feOffset><feComposite operator="in" in="flood" in2="offset" result="comp"></feComposite><feGaussianBlur in="offset" stdDeviation="3" result="shadow"></feGaussianBlur><feColorMatrix in="shadow" type="matrix" values="0.7 0 0 0 0  0 0.7 0 0 0  0 0 0.7 0 0  0 0 0 0.3 0" result="dark-shadow"></feColorMatrix><feOffset dx="0" dy="4" in="dark-shadow" result="offset-shadow"></feOffset><feOffset dx="0" dy="2" in="conv" result="offset-2"></feOffset><feComposite operator="out" in="offset" in2="offset-2" result="edge-diff"></feComposite><feGaussianBlur in="edge-diff" stdDeviation="1" result="edge-blur"></feGaussianBlur><feColorMatrix in="edge-blur" result="edge-shadow" type="matrix" values="0 0 0 0 0  0 0 0 0 0  0 0 0 0 0  0 0 0 0.5 0"></feColorMatrix><feComposite operator="in" in="edge-shadow" in2="offset" result="edge-shadow-in"></feComposite><feOffset dx="0" dy="1" in="edge-shadow-in" result="edge-shadow-final"></feOffset><feMerge result="out"><feMergeNode in="offset-shadow"></feMergeNode><feMergeNode in="comp"></feMergeNode><feMergeNode in="edge-shadow-final"></feMergeNode><feMergeNode in="SourceGraphic"></feMergeNode></feMerge></filter></defs><g filter="url(#editing-shiny)"><g transform="translate(28.89030009508133, 97.30500030517578)"><path d="M7.68 0L0.64 0L8.32-42.24L22.08-42.24L32.06-13.18L37.38-42.24L44.48-42.18L36.67 0L22.02 0L12.80-27.97L7.68 0ZM48.86-1.92L48.86-1.92L48.86-1.92Q47.36-3.58 46.69-6.21L46.69-6.21L46.69-6.21Q46.02-8.83 46.02-13.12L46.02-13.12L46.02-13.12Q46.02-17.41 47.49-21.31L47.49-21.31L47.49-21.31Q48.96-25.22 51.65-28.03L51.65-28.03L51.65-28.03Q57.15-33.92 66.24-33.92L66.24-33.92L66.24-33.92Q69.50-33.92 71.87-32.83L71.87-32.83L82.82-33.92L78.08-8.96L78.08-8.96Q77.89-8.19 77.89-6.78L77.89-6.78L77.89-6.78Q77.89-5.38 78.75-4.48L78.75-4.48L78.75-4.48Q79.62-3.58 80.90-3.46L80.90-3.46L80.90-3.46Q80.26-1.28 77.92 0L77.92 0L77.92 0Q75.58 1.28 72.96 1.28L72.96 1.28L72.96 1.28Q70.34 1.28 68.58 0.29L68.58 0.29L68.58 0.29Q66.82-0.70 66.30-2.37L66.30-2.37L66.30-2.37Q65.28-0.77 63.10 0.26L63.10 0.26L63.10 0.26Q60.93 1.28 58.02 1.28L58.02 1.28L58.02 1.28Q55.10 1.28 52.74 0.51L52.74 0.51L52.74 0.51Q50.37-0.26 48.86-1.92ZM62.37-27.90L62.37-27.90L62.37-27.90Q61.63-26.75 60.99-24.80L60.99-24.80L60.99-24.80Q60.35-22.85 59.30-17.63L59.30-17.63L59.30-17.63Q58.24-12.42 58.24-8.70L58.24-8.70L58.24-8.70Q58.24-4.99 58.82-3.90L58.82-3.90L58.82-3.90Q59.39-2.82 60.42-2.82L60.42-2.82L60.42-2.82Q62.46-2.82 63.97-4.77L63.97-4.77L63.97-4.77Q65.47-6.72 66.05-10.18L66.05-10.18L69.44-28.93L69.44-28.93Q68.10-30.08 66.53-30.08L66.53-30.08L66.53-30.08Q64.96-30.08 64.03-29.57L64.03-29.57L64.03-29.57Q63.10-29.06 62.37-27.90ZM132.35 1.28L132.35 1.28L132.35 1.28Q124.61 1.28 124.61-4.74L124.61-4.74L124.61-4.74Q124.61-7.36 125.73-12.45L125.73-12.45L125.73-12.45Q126.85-17.54 127.23-19.58L127.23-19.58L127.23-19.58Q128.13-24.26 128.13-25.73L128.13-25.73L128.13-25.73Q128.13-28.99 125.70-28.99L125.70-28.99L125.70-28.99Q124.10-28.99 122.56-26.78L122.56-26.78L122.56-26.78Q121.02-24.58 120.32-20.16L120.32-20.16L116.35 0L103.87 1.28L107.33-16.13L107.33-16.13Q107.90-19.01 108.42-22.27L108.42-22.27L108.42-22.27Q108.93-25.54 108.93-26.05L108.93-26.05L108.93-26.05Q108.93-28.99 106.75-28.99L106.75-28.99L106.75-28.99Q105.28-28.99 103.68-26.82L103.68-26.82L103.68-26.82Q102.08-24.64 101.18-20.16L101.18-20.16L97.28 0L84.67 1.28L91.39-32.64L101.82-33.92L100.74-27.46L100.74-27.46Q102.40-30.91 105.47-32.42L105.47-32.42L105.47-32.42Q108.54-33.92 113.34-33.92L113.34-33.92L113.34-33.92Q116.10-33.92 117.89-32.58L117.89-32.58L117.89-32.58Q119.68-31.23 120.26-29.06L120.26-29.06L120.26-29.06Q121.34-31.30 124.13-32.61L124.13-32.61L124.13-32.61Q126.91-33.92 130.34-33.92L130.34-33.92L130.34-33.92Q133.76-33.92 135.46-33.18L135.46-33.18L135.46-33.18Q137.15-32.45 138.18-31.23L138.18-31.23L138.18-31.23Q139.90-28.99 139.90-24.90L139.90-24.90L139.90-24.90Q139.90-20.86 138.18-12.48L138.18-12.48L138.18-12.48Q137.28-8.38 137.28-6.88L137.28-6.88L137.28-6.88Q137.28-5.38 138.14-4.48L138.14-4.48L138.14-4.48Q139.01-3.58 140.29-3.46L140.29-3.46L140.29-3.46Q139.65-1.28 137.44 0L137.44 0L137.44 0Q135.23 1.28 132.35 1.28ZM148-1.92L148-1.92L148-1.92Q146.50-3.58 145.82-6.21L145.82-6.21L145.82-6.21Q145.15-8.83 145.15-13.12L145.15-13.12L145.15-13.12Q145.15-17.41 146.62-21.31L146.62-21.31L146.62-21.31Q148.10-25.22 150.78-28.03L150.78-28.03L150.78-28.03Q156.29-33.92 165.38-33.92L165.38-33.92L165.38-33.92Q168.64-33.92 171.01-32.83L171.01-32.83L181.95-33.92L177.22-8.96L177.22-8.96Q177.02-8.19 177.02-6.78L177.02-6.78L177.02-6.78Q177.02-5.38 177.89-4.48L177.89-4.48L177.89-4.48Q178.75-3.58 180.03-3.46L180.03-3.46L180.03-3.46Q179.39-1.28 177.06 0L177.06 0L177.06 0Q174.72 1.28 172.10 1.28L172.10 1.28L172.10 1.28Q169.47 1.28 167.71 0.29L167.71 0.29L167.71 0.29Q165.95-0.70 165.44-2.37L165.44-2.37L165.44-2.37Q164.42-0.77 162.24 0.26L162.24 0.26L162.24 0.26Q160.06 1.28 157.15 1.28L157.15 1.28L157.15 1.28Q154.24 1.28 151.87 0.51L151.87 0.51L151.87 0.51Q149.50-0.26 148-1.92ZM161.50-27.90L161.50-27.90L161.50-27.90Q160.77-26.75 160.13-24.80L160.13-24.80L160.13-24.80Q159.49-22.85 158.43-17.63L158.43-17.63L158.43-17.63Q157.38-12.42 157.38-8.70L157.38-8.70L157.38-8.70Q157.38-4.99 157.95-3.90L157.95-3.90L157.95-3.90Q158.53-2.82 159.55-2.82L159.55-2.82L159.55-2.82Q161.60-2.82 163.10-4.77L163.10-4.77L163.10-4.77Q164.61-6.72 165.18-10.18L165.18-10.18L168.58-28.93L168.58-28.93Q167.23-30.08 165.66-30.08L165.66-30.08L165.66-30.08Q164.10-30.08 163.17-29.57L163.17-29.57L163.17-29.57Q162.24-29.06 161.50-27.90ZM212.48 1.28L212.48 1.28L212.48 1.28Q204.74 1.28 204.74-4.74L204.74-4.74L204.74-4.74Q204.80-6.40 205.31-9.22L205.31-9.22L206.46-15.10L206.46-15.10Q208.19-23.42 208.19-25.28L208.19-25.28L208.19-25.28Q208.19-28.99 206.02-28.99L206.02-28.99L206.02-28.99Q202.37-28.99 200.45-19.46L200.45-19.46L196.67 0L183.81 1.28L190.46-32.70L200.96-33.92L199.94-27.65L199.94-27.65Q202.94-33.92 212.16-33.92L212.16-33.92L212.16-33.92Q216.64-33.92 218.53-32.03L218.53-32.03L218.53-32.03Q220.42-30.14 220.42-25.92L220.42-25.92L220.42-25.92Q220.42-21.95 218.37-12.67L218.37-12.67L218.37-12.67Q217.41-8.51 217.41-6.94L217.41-6.94L217.41-6.94Q217.41-5.38 218.27-4.48L218.27-4.48L218.27-4.48Q219.14-3.58 220.42-3.46L220.42-3.46L220.42-3.46Q219.78-1.28 217.57 0L217.57 0L217.57 0Q215.36 1.28 212.48 1.28ZM238.59 0L224.96 0L232.26-38.91L232.96-42.24L246.66-42.24L238.59 0ZM264.58-3.78L264.58-3.78L264.58-3.78Q262.85 1.28 256.19 1.28L256.19 1.28L256.19 1.28Q251.26 1.28 247.87-4.61L247.87-4.61L247.87-4.61Q244.42-10.50 243.78-20.10L243.78-20.10L243.78-20.10Q250.82-32.96 255.68-38.27L255.68-38.27L255.68-38.27Q260.35-43.33 265.22-43.33L265.22-43.33L265.22-43.33Q267.84-43.33 269.73-41.92L269.73-41.92L269.73-41.92Q271.62-40.51 272.06-38.27L272.06-38.27L272.06-38.27Q269.89-37.38 268.86-36.67L268.86-36.67L268.86-36.67Q266.30-34.75 262.85-30.46L262.85-30.46L257.02-23.49L257.02-23.49Q255.62-21.82 255.04-21.06L255.04-21.06L255.04-21.06Q256.00-15.68 258.88-10.37L258.88-10.37L258.88-10.37Q261.63-5.31 264.58-3.78ZM290.56-2.69L290.56-2.69L290.56-2.69Q287.49 1.28 279.87 1.28L279.87 1.28L279.87 1.28Q275.90 1.28 273.02-1.12L273.02-1.12L273.02-1.12Q270.14-3.52 270.14-6.98L270.14-6.98L270.14-6.98Q270.14-8.90 270.34-9.86L270.34-9.86L274.62-32.64L287.62-33.92L282.94-9.22L282.94-9.22Q282.69-7.81 282.69-6.98L282.69-6.98L282.69-6.98Q282.69-3.26 284.93-3.26L284.93-3.26L284.93-3.26Q287.42-3.26 289.22-6.66L289.22-6.66L289.22-6.66Q289.79-7.74 290.05-9.15L290.05-9.15L294.59-32.64L307.20-33.92L302.46-8.96L302.46-8.96Q302.27-8 302.27-6.98L302.27-6.98L302.27-6.98Q302.27-5.95 302.85-4.83L302.85-4.83L302.85-4.83Q303.42-3.71 305.28-3.46L305.28-3.46L305.28-3.46Q304.90-1.92 303.55-0.90L303.55-0.90L303.55-0.90Q300.74 1.28 297.70 1.28L297.70 1.28L297.70 1.28Q294.66 1.28 292.86 0.19L292.86 0.19L292.86 0.19Q291.07-0.90 290.56-2.69ZM356.74 1.28L356.74 1.28L356.74 1.28Q348.99 1.28 348.99-4.74L348.99-4.74L348.99-4.74Q348.99-7.36 350.11-12.45L350.11-12.45L350.11-12.45Q351.23-17.54 351.62-19.58L351.62-19.58L351.62-19.58Q352.51-24.26 352.51-25.73L352.51-25.73L352.51-25.73Q352.51-28.99 350.08-28.99L350.08-28.99L350.08-28.99Q348.48-28.99 346.94-26.78L346.94-26.78L346.94-26.78Q345.41-24.58 344.70-20.16L344.70-20.16L340.74 0L328.26 1.28L331.71-16.13L331.71-16.13Q332.29-19.01 332.80-22.27L332.80-22.27L332.80-22.27Q333.31-25.54 333.31-26.05L333.31-26.05L333.31-26.05Q333.31-28.99 331.14-28.99L331.14-28.99L331.14-28.99Q329.66-28.99 328.06-26.82L328.06-26.82L328.06-26.82Q326.46-24.64 325.57-20.16L325.57-20.16L321.66 0L309.06 1.28L315.78-32.64L326.21-33.92L325.12-27.46L325.12-27.46Q326.78-30.91 329.86-32.42L329.86-32.42L329.86-32.42Q332.93-33.92 337.73-33.92L337.73-33.92L337.73-33.92Q340.48-33.92 342.27-32.58L342.27-32.58L342.27-32.58Q344.06-31.23 344.64-29.06L344.64-29.06L344.64-29.06Q345.73-31.30 348.51-32.61L348.51-32.61L348.51-32.61Q351.30-33.92 354.72-33.92L354.72-33.92L354.72-33.92Q358.14-33.92 359.84-33.18L359.84-33.18L359.84-33.18Q361.54-32.45 362.56-31.23L362.56-31.23L362.56-31.23Q364.29-28.99 364.29-24.90L364.29-24.90L364.29-24.90Q364.29-20.86 362.56-12.48L362.56-12.48L362.56-12.48Q361.66-8.38 361.66-6.88L361.66-6.88L361.66-6.88Q361.66-5.38 362.53-4.48L362.53-4.48L362.53-4.48Q363.39-3.58 364.67-3.46L364.67-3.46L364.67-3.46Q364.03-1.28 361.82 0L361.82 0L361.82 0Q359.62 1.28 356.74 1.28ZM372.38-1.92L372.38-1.92L372.38-1.92Q370.88-3.58 370.21-6.21L370.21-6.21L370.21-6.21Q369.54-8.83 369.54-13.12L369.54-13.12L369.54-13.12Q369.54-17.41 371.01-21.31L371.01-21.31L371.01-21.31Q372.48-25.22 375.17-28.03L375.17-28.03L375.17-28.03Q380.67-33.92 389.76-33.92L389.76-33.92L389.76-33.92Q393.02-33.92 395.39-32.83L395.39-32.83L406.34-33.92L401.60-8.96L401.60-8.96Q401.41-8.19 401.41-6.78L401.41-6.78L401.41-6.78Q401.41-5.38 402.27-4.48L402.27-4.48L402.27-4.48Q403.14-3.58 404.42-3.46L404.42-3.46L404.42-3.46Q403.78-1.28 401.44 0L401.44 0L401.44 0Q399.10 1.28 396.48 1.28L396.48 1.28L396.48 1.28Q393.86 1.28 392.10 0.29L392.10 0.29L392.10 0.29Q390.34-0.70 389.82-2.37L389.82-2.37L389.82-2.37Q388.80-0.77 386.62 0.26L386.62 0.26L386.62 0.26Q384.45 1.28 381.54 1.28L381.54 1.28L381.54 1.28Q378.62 1.28 376.26 0.51L376.26 0.51L376.26 0.51Q373.89-0.26 372.38-1.92ZM385.89-27.90L385.89-27.90L385.89-27.90Q385.15-26.75 384.51-24.80L384.51-24.80L384.51-24.80Q383.87-22.85 382.82-17.63L382.82-17.63L382.82-17.63Q381.76-12.42 381.76-8.70L381.76-8.70L381.76-8.70Q381.76-4.99 382.34-3.90L382.34-3.90L382.34-3.90Q382.91-2.82 383.94-2.82L383.94-2.82L383.94-2.82Q385.98-2.82 387.49-4.77L387.49-4.77L387.49-4.77Q388.99-6.72 389.57-10.18L389.57-10.18L392.96-28.93L392.96-28.93Q391.62-30.08 390.05-30.08L390.05-30.08L390.05-30.08Q388.48-30.08 387.55-29.57L387.55-29.57L387.55-29.57Q386.62-29.06 385.89-27.90ZM429.82-17.98L429.82-17.98L429.82-17.98Q432.13-22.08 432.13-26.24L432.13-26.24L432.13-26.24Q432.13-28.99 430.14-28.99L430.14-28.99L430.14-28.99Q428.61-28.99 427.01-26.37L427.01-26.37L427.01-26.37Q425.34-23.74 424.83-20.35L424.83-20.35L421.50 0L408.26 1.28L414.78-32.64L425.34-33.92L424.19-27.46L424.19-27.46Q427.33-33.92 434.37-33.92L434.37-33.92L434.37-33.92Q438.08-33.92 440.10-32L440.10-32L440.10-32Q442.11-30.08 442.11-26.14L442.11-26.14L442.11-26.14Q442.11-22.21 439.52-19.71L439.52-19.71L439.52-19.71Q436.93-17.22 432.51-17.22L432.51-17.22L432.51-17.22Q430.59-17.22 429.82-17.98Z" fill="url(#editing-shiny-gradient)"></path></g></g><g filter="url(#editing-shiny2)"><g transform="translate(29.151444733142853, 97.30500411987305)"><path d="M7.68 0L0.64 0L8.32-42.24L22.08-42.24L32.06-13.18L37.38-42.24L44.48-42.18L36.67 0L22.02 0L12.80-27.97L7.68 0ZM48.86-1.92L48.86-1.92L48.86-1.92Q47.36-3.58 46.69-6.21L46.69-6.21L46.69-6.21Q46.02-8.83 46.02-13.12L46.02-13.12L46.02-13.12Q46.02-17.41 47.49-21.31L47.49-21.31L47.49-21.31Q48.96-25.22 51.65-28.03L51.65-28.03L51.65-28.03Q57.15-33.92 66.24-33.92L66.24-33.92L66.24-33.92Q69.50-33.92 71.87-32.83L71.87-32.83L82.82-33.92L78.08-8.96L78.08-8.96Q77.89-8.19 77.89-6.78L77.89-6.78L77.89-6.78Q77.89-5.38 78.75-4.48L78.75-4.48L78.75-4.48Q79.62-3.58 80.90-3.46L80.90-3.46L80.90-3.46Q80.26-1.28 77.92 0L77.92 0L77.92 0Q75.58 1.28 72.96 1.28L72.96 1.28L72.96 1.28Q70.34 1.28 68.58 0.29L68.58 0.29L68.58 0.29Q66.82-0.70 66.30-2.37L66.30-2.37L66.30-2.37Q65.28-0.77 63.10 0.26L63.10 0.26L63.10 0.26Q60.93 1.28 58.02 1.28L58.02 1.28L58.02 1.28Q55.10 1.28 52.74 0.51L52.74 0.51L52.74 0.51Q50.37-0.26 48.86-1.92ZM62.37-27.90L62.37-27.90L62.37-27.90Q61.63-26.75 60.99-24.80L60.99-24.80L60.99-24.80Q60.35-22.85 59.30-17.63L59.30-17.63L59.30-17.63Q58.24-12.42 58.24-8.70L58.24-8.70L58.24-8.70Q58.24-4.99 58.82-3.90L58.82-3.90L58.82-3.90Q59.39-2.82 60.42-2.82L60.42-2.82L60.42-2.82Q62.46-2.82 63.97-4.77L63.97-4.77L63.97-4.77Q65.47-6.72 66.05-10.18L66.05-10.18L69.44-28.93L69.44-28.93Q68.10-30.08 66.53-30.08L66.53-30.08L66.53-30.08Q64.96-30.08 64.03-29.57L64.03-29.57L64.03-29.57Q63.10-29.06 62.37-27.90ZM132.35 1.28L132.35 1.28L132.35 1.28Q124.61 1.28 124.61-4.74L124.61-4.74L124.61-4.74Q124.61-7.36 125.73-12.45L125.73-12.45L125.73-12.45Q126.85-17.54 127.23-19.58L127.23-19.58L127.23-19.58Q128.13-24.26 128.13-25.73L128.13-25.73L128.13-25.73Q128.13-28.99 125.70-28.99L125.70-28.99L125.70-28.99Q124.10-28.99 122.56-26.78L122.56-26.78L122.56-26.78Q121.02-24.58 120.32-20.16L120.32-20.16L116.35 0L103.87 1.28L107.33-16.13L107.33-16.13Q107.90-19.01 108.42-22.27L108.42-22.27L108.42-22.27Q108.93-25.54 108.93-26.05L108.93-26.05L108.93-26.05Q108.93-28.99 106.75-28.99L106.75-28.99L106.75-28.99Q105.28-28.99 103.68-26.82L103.68-26.82L103.68-26.82Q102.08-24.64 101.18-20.16L101.18-20.16L97.28 0L84.67 1.28L91.39-32.64L101.82-33.92L100.74-27.46L100.74-27.46Q102.40-30.91 105.47-32.42L105.47-32.42L105.47-32.42Q108.54-33.92 113.34-33.92L113.34-33.92L113.34-33.92Q116.10-33.92 117.89-32.58L117.89-32.58L117.89-32.58Q119.68-31.23 120.26-29.06L120.26-29.06L120.26-29.06Q121.34-31.30 124.13-32.61L124.13-32.61L124.13-32.61Q126.91-33.92 130.34-33.92L130.34-33.92L130.34-33.92Q133.76-33.92 135.46-33.18L135.46-33.18L135.46-33.18Q137.15-32.45 138.18-31.23L138.18-31.23L138.18-31.23Q139.90-28.99 139.90-24.90L139.90-24.90L139.90-24.90Q139.90-20.86 138.18-12.48L138.18-12.48L138.18-12.48Q137.28-8.38 137.28-6.88L137.28-6.88L137.28-6.88Q137.28-5.38 138.14-4.48L138.14-4.48L138.14-4.48Q139.01-3.58 140.29-3.46L140.29-3.46L140.29-3.46Q139.65-1.28 137.44 0L137.44 0L137.44 0Q135.23 1.28 132.35 1.28ZM148-1.92L148-1.92L148-1.92Q146.50-3.58 145.82-6.21L145.82-6.21L145.82-6.21Q145.15-8.83 145.15-13.12L145.15-13.12L145.15-13.12Q145.15-17.41 146.62-21.31L146.62-21.31L146.62-21.31Q148.10-25.22 150.78-28.03L150.78-28.03L150.78-28.03Q156.29-33.92 165.38-33.92L165.38-33.92L165.38-33.92Q168.64-33.92 171.01-32.83L171.01-32.83L181.95-33.92L177.22-8.96L177.22-8.96Q177.02-8.19 177.02-6.78L177.02-6.78L177.02-6.78Q177.02-5.38 177.89-4.48L177.89-4.48L177.89-4.48Q178.75-3.58 180.03-3.46L180.03-3.46L180.03-3.46Q179.39-1.28 177.06 0L177.06 0L177.06 0Q174.72 1.28 172.10 1.28L172.10 1.28L172.10 1.28Q169.47 1.28 167.71 0.29L167.71 0.29L167.71 0.29Q165.95-0.70 165.44-2.37L165.44-2.37L165.44-2.37Q164.42-0.77 162.24 0.26L162.24 0.26L162.24 0.26Q160.06 1.28 157.15 1.28L157.15 1.28L157.15 1.28Q154.24 1.28 151.87 0.51L151.87 0.51L151.87 0.51Q149.50-0.26 148-1.92ZM161.50-27.90L161.50-27.90L161.50-27.90Q160.77-26.75 160.13-24.80L160.13-24.80L160.13-24.80Q159.49-22.85 158.43-17.63L158.43-17.63L158.43-17.63Q157.38-12.42 157.38-8.70L157.38-8.70L157.38-8.70Q157.38-4.99 157.95-3.90L157.95-3.90L157.95-3.90Q158.53-2.82 159.55-2.82L159.55-2.82L159.55-2.82Q161.60-2.82 163.10-4.77L163.10-4.77L163.10-4.77Q164.61-6.72 165.18-10.18L165.18-10.18L168.58-28.93L168.58-28.93Q167.23-30.08 165.66-30.08L165.66-30.08L165.66-30.08Q164.10-30.08 163.17-29.57L163.17-29.57L163.17-29.57Q162.24-29.06 161.50-27.90ZM212.48 1.28L212.48 1.28L212.48 1.28Q204.74 1.28 204.74-4.74L204.74-4.74L204.74-4.74Q204.80-6.40 205.31-9.22L205.31-9.22L206.46-15.10L206.46-15.10Q208.19-23.42 208.19-25.28L208.19-25.28L208.19-25.28Q208.19-28.99 206.02-28.99L206.02-28.99L206.02-28.99Q202.37-28.99 200.45-19.46L200.45-19.46L196.67 0L183.81 1.28L190.46-32.70L200.96-33.92L199.94-27.65L199.94-27.65Q202.94-33.92 212.16-33.92L212.16-33.92L212.16-33.92Q216.64-33.92 218.53-32.03L218.53-32.03L218.53-32.03Q220.42-30.14 220.42-25.92L220.42-25.92L220.42-25.92Q220.42-21.95 218.37-12.67L218.37-12.67L218.37-12.67Q217.41-8.51 217.41-6.94L217.41-6.94L217.41-6.94Q217.41-5.38 218.27-4.48L218.27-4.48L218.27-4.48Q219.14-3.58 220.42-3.46L220.42-3.46L220.42-3.46Q219.78-1.28 217.57 0L217.57 0L217.57 0Q215.36 1.28 212.48 1.28ZM238.59 0L224.96 0L232.26-38.91L232.96-42.24L246.66-42.24L238.59 0ZM264.58-3.78L264.58-3.78L264.58-3.78Q262.85 1.28 256.19 1.28L256.19 1.28L256.19 1.28Q251.26 1.28 247.87-4.61L247.87-4.61L247.87-4.61Q244.42-10.50 243.78-20.10L243.78-20.10L243.78-20.10Q250.82-32.96 255.68-38.27L255.68-38.27L255.68-38.27Q260.35-43.33 265.22-43.33L265.22-43.33L265.22-43.33Q267.84-43.33 269.73-41.92L269.73-41.92L269.73-41.92Q271.62-40.51 272.06-38.27L272.06-38.27L272.06-38.27Q269.89-37.38 268.86-36.67L268.86-36.67L268.86-36.67Q266.30-34.75 262.85-30.46L262.85-30.46L257.02-23.49L257.02-23.49Q255.62-21.82 255.04-21.06L255.04-21.06L255.04-21.06Q256.00-15.68 258.88-10.37L258.88-10.37L258.88-10.37Q261.63-5.31 264.58-3.78ZM290.56-2.69L290.56-2.69L290.56-2.69Q287.49 1.28 279.87 1.28L279.87 1.28L279.87 1.28Q275.90 1.28 273.02-1.12L273.02-1.12L273.02-1.12Q270.14-3.52 270.14-6.98L270.14-6.98L270.14-6.98Q270.14-8.90 270.34-9.86L270.34-9.86L274.62-32.64L287.62-33.92L282.94-9.22L282.94-9.22Q282.69-7.81 282.69-6.98L282.69-6.98L282.69-6.98Q282.69-3.26 284.93-3.26L284.93-3.26L284.93-3.26Q287.42-3.26 289.22-6.66L289.22-6.66L289.22-6.66Q289.79-7.74 290.05-9.15L290.05-9.15L294.59-32.64L307.20-33.92L302.46-8.96L302.46-8.96Q302.27-8 302.27-6.98L302.27-6.98L302.27-6.98Q302.27-5.95 302.85-4.83L302.85-4.83L302.85-4.83Q303.42-3.71 305.28-3.46L305.28-3.46L305.28-3.46Q304.90-1.92 303.55-0.90L303.55-0.90L303.55-0.90Q300.74 1.28 297.70 1.28L297.70 1.28L297.70 1.28Q294.66 1.28 292.86 0.19L292.86 0.19L292.86 0.19Q291.07-0.90 290.56-2.69ZM356.74 1.28L356.74 1.28L356.74 1.28Q348.99 1.28 348.99-4.74L348.99-4.74L348.99-4.74Q348.99-7.36 350.11-12.45L350.11-12.45L350.11-12.45Q351.23-17.54 351.62-19.58L351.62-19.58L351.62-19.58Q352.51-24.26 352.51-25.73L352.51-25.73L352.51-25.73Q352.51-28.99 350.08-28.99L350.08-28.99L350.08-28.99Q348.48-28.99 346.94-26.78L346.94-26.78L346.94-26.78Q345.41-24.58 344.70-20.16L344.70-20.16L340.74 0L328.26 1.28L331.71-16.13L331.71-16.13Q332.29-19.01 332.80-22.27L332.80-22.27L332.80-22.27Q333.31-25.54 333.31-26.05L333.31-26.05L333.31-26.05Q333.31-28.99 331.14-28.99L331.14-28.99L331.14-28.99Q329.66-28.99 328.06-26.82L328.06-26.82L328.06-26.82Q326.46-24.64 325.57-20.16L325.57-20.16L321.66 0L309.06 1.28L315.78-32.64L326.21-33.92L325.12-27.46L325.12-27.46Q326.78-30.91 329.86-32.42L329.86-32.42L329.86-32.42Q332.93-33.92 337.73-33.92L337.73-33.92L337.73-33.92Q340.48-33.92 342.27-32.58L342.27-32.58L342.27-32.58Q344.06-31.23 344.64-29.06L344.64-29.06L344.64-29.06Q345.73-31.30 348.51-32.61L348.51-32.61L348.51-32.61Q351.30-33.92 354.72-33.92L354.72-33.92L354.72-33.92Q358.14-33.92 359.84-33.18L359.84-33.18L359.84-33.18Q361.54-32.45 362.56-31.23L362.56-31.23L362.56-31.23Q364.29-28.99 364.29-24.90L364.29-24.90L364.29-24.90Q364.29-20.86 362.56-12.48L362.56-12.48L362.56-12.48Q361.66-8.38 361.66-6.88L361.66-6.88L361.66-6.88Q361.66-5.38 362.53-4.48L362.53-4.48L362.53-4.48Q363.39-3.58 364.67-3.46L364.67-3.46L364.67-3.46Q364.03-1.28 361.82 0L361.82 0L361.82 0Q359.62 1.28 356.74 1.28ZM372.38-1.92L372.38-1.92L372.38-1.92Q370.88-3.58 370.21-6.21L370.21-6.21L370.21-6.21Q369.54-8.83 369.54-13.12L369.54-13.12L369.54-13.12Q369.54-17.41 371.01-21.31L371.01-21.31L371.01-21.31Q372.48-25.22 375.17-28.03L375.17-28.03L375.17-28.03Q380.67-33.92 389.76-33.92L389.76-33.92L389.76-33.92Q393.02-33.92 395.39-32.83L395.39-32.83L406.34-33.92L401.60-8.96L401.60-8.96Q401.41-8.19 401.41-6.78L401.41-6.78L401.41-6.78Q401.41-5.38 402.27-4.48L402.27-4.48L402.27-4.48Q403.14-3.58 404.42-3.46L404.42-3.46L404.42-3.46Q403.78-1.28 401.44 0L401.44 0L401.44 0Q399.10 1.28 396.48 1.28L396.48 1.28L396.48 1.28Q393.86 1.28 392.10 0.29L392.10 0.29L392.10 0.29Q390.34-0.70 389.82-2.37L389.82-2.37L389.82-2.37Q388.80-0.77 386.62 0.26L386.62 0.26L386.62 0.26Q384.45 1.28 381.54 1.28L381.54 1.28L381.54 1.28Q378.62 1.28 376.26 0.51L376.26 0.51L376.26 0.51Q373.89-0.26 372.38-1.92ZM385.89-27.90L385.89-27.90L385.89-27.90Q385.15-26.75 384.51-24.80L384.51-24.80L384.51-24.80Q383.87-22.85 382.82-17.63L382.82-17.63L382.82-17.63Q381.76-12.42 381.76-8.70L381.76-8.70L381.76-8.70Q381.76-4.99 382.34-3.90L382.34-3.90L382.34-3.90Q382.91-2.82 383.94-2.82L383.94-2.82L383.94-2.82Q385.98-2.82 387.49-4.77L387.49-4.77L387.49-4.77Q388.99-6.72 389.57-10.18L389.57-10.18L392.96-28.93L392.96-28.93Q391.62-30.08 390.05-30.08L390.05-30.08L390.05-30.08Q388.48-30.08 387.55-29.57L387.55-29.57L387.55-29.57Q386.62-29.06 385.89-27.90ZM429.82-17.98L429.82-17.98L429.82-17.98Q432.13-22.08 432.13-26.24L432.13-26.24L432.13-26.24Q432.13-28.99 430.14-28.99L430.14-28.99L430.14-28.99Q428.61-28.99 427.01-26.37L427.01-26.37L427.01-26.37Q425.34-23.74 424.83-20.35L424.83-20.35L421.50 0L408.26 1.28L414.78-32.64L425.34-33.92L424.19-27.46L424.19-27.46Q427.33-33.92 434.37-33.92L434.37-33.92L434.37-33.92Q438.08-33.92 440.10-32L440.10-32L440.10-32Q442.11-30.08 442.11-26.14L442.11-26.14L442.11-26.14Q442.11-22.21 439.52-19.71L439.52-19.71L439.52-19.71Q436.93-17.22 432.51-17.22L432.51-17.22L432.51-17.22Q430.59-17.22 429.82-17.98Z" fill="url(#editing-shiny-gradient2)"></path></g></g><style>text {
  font-size: 64px;
  font-family: Arial Black;
  dominant-baseline: central;
  text-anchor: middle;
}</style></svg>